<svg width="186" height="317" viewBox="0 0 186 317" fill="none" xmlns="http://www.w3.org/2000/svg">
<g clip-path="url(#clip0_1_2)">
<mask id="mask0_1_2" style="mask-type:luminance" maskUnits="userSpaceOnUse" x="0" y="0" width="186" height="317">
<path d="M185.982 0.496094H0.237549V316.801H185.982V0.496094Z" fill="white"/>
</mask>
<g mask="url(#mask0_1_2)">
<path d="M55.1784 254.422V264.086C55.1728 265.78 55.6704 267.437 56.6081 268.848C57.5458 270.259 58.8813 271.36 60.4453 272.01C61.3634 272.397 62.4264 272.832 63.5861 273.219L64.166 274.62V282.109C64.1628 283.412 64.5469 284.687 65.2697 285.771C65.9924 286.855 67.021 287.7 68.2249 288.198L70.3027 288.971V290.807C70.5776 296.883 73.1846 302.618 77.5812 306.82C81.9778 311.023 87.8254 313.368 93.9072 313.368C99.989 313.368 105.837 311.023 110.233 306.82C114.63 302.618 117.237 296.883 117.512 290.807L118.285 288.729L119.686 288.198C120.89 287.7 121.919 286.855 122.641 285.771C123.364 284.687 123.748 283.412 123.745 282.109V274.668V275.2V273.605L127.756 272.059C129.32 271.408 130.655 270.307 131.593 268.897C132.531 267.486 133.028 265.828 133.023 264.134V254.47L55.1784 254.422Z" fill="#D9E1E4"/>
<path d="M93.9788 300.079C86.3272 300.086 78.7297 298.796 71.5099 296.262C70.9368 296.025 70.4767 295.577 70.2248 295.01C69.973 294.443 69.9487 293.801 70.1569 293.217C70.393 292.645 70.8439 292.188 71.4129 291.944C71.9819 291.7 72.6238 291.689 73.2011 291.913C86.0317 296.376 99.9932 296.376 112.824 291.913C113.109 291.795 113.415 291.736 113.723 291.738C114.032 291.741 114.336 291.804 114.62 291.926C114.903 292.047 115.16 292.224 115.374 292.446C115.588 292.668 115.756 292.93 115.868 293.217C116.095 293.789 116.09 294.426 115.856 294.994C115.621 295.562 115.175 296.016 114.612 296.262C108.043 298.847 101.038 300.143 93.9788 300.079Z" fill="#94B5BF"/>
<path d="M94.7528 267.964C81.3373 268.011 68.0092 265.805 55.3234 261.441C54.7467 261.217 54.2827 260.773 54.0335 260.206C53.7843 259.64 53.7703 258.998 53.9946 258.421C54.2188 257.844 54.663 257.38 55.2294 257.131C55.7957 256.882 56.4379 256.868 57.0146 257.092C57.4012 257.092 94.5112 271.202 129.012 257.092C129.298 256.981 129.602 256.927 129.908 256.934C130.215 256.941 130.517 257.008 130.797 257.131C131.078 257.255 131.331 257.432 131.543 257.653C131.755 257.875 131.921 258.135 132.032 258.421C132.143 258.707 132.197 259.011 132.19 259.318C132.183 259.624 132.116 259.926 131.993 260.206C131.87 260.487 131.692 260.74 131.471 260.952C131.25 261.164 130.989 261.33 130.703 261.441C119.253 265.914 107.045 268.129 94.7528 267.964Z" fill="#94B5BF"/>
<path d="M122.778 273.316V274.911V274.379V279.598L121.86 279.936C112.391 283.413 102.419 285.323 92.3362 285.59C82.4455 285.383 72.654 283.572 63.344 280.226V274.379L63.0541 273.655C72.3505 277.063 82.1471 278.908 92.0463 279.115L122.778 273.316Z" fill="#94B5BF"/>
<path d="M138.772 248.54V229.84C138.772 229.84 136.55 195.195 152.64 169.295C168.731 143.395 183.324 127.739 183.324 90.9676C183.324 54.1957 151.626 3.12109 93.1095 3.12109C34.5935 3.12109 2.84705 54.1957 2.84705 90.9676C2.84705 127.739 17.3432 143.444 33.5788 169.295C43.1332 184.331 47.9635 201.885 47.4468 219.693V248.685C47.4327 249.513 47.6577 250.327 48.0948 251.03C48.532 251.733 49.1626 252.294 49.9111 252.648C63.5031 258.688 78.2115 261.81 93.0854 261.81C107.959 261.81 122.668 258.688 136.26 252.648C137.04 252.292 137.697 251.71 138.145 250.979C138.592 250.247 138.811 249.398 138.772 248.54Z" fill="#FBE481"/>
<path opacity="0.5" d="M151.044 170.444C141.49 185.48 136.66 203.034 137.176 220.842V249.834C137.174 250.664 136.937 251.477 136.493 252.178C136.048 252.879 135.414 253.44 134.664 253.796C124.641 258.345 113.957 261.264 103.014 262.446C103.014 259.015 102.724 254.811 102.482 249.834V220.842C101.893 203.046 106.674 185.484 116.205 170.444C132.296 144.592 146.889 128.936 146.889 92.1163C146.889 59.1618 121.424 14.8037 73.9734 5.91272C79.7378 4.8051 85.5955 4.25494 91.4654 4.26983C150.03 4.26983 181.728 55.3445 181.728 92.3096C181.728 129.275 167.087 144.592 151.044 170.444Z" fill="#F8A547"/>
<path d="M150.272 169.622C143.089 181.669 139.361 195.461 139.497 209.486C139.497 216.927 139.497 221.276 139.497 221.276L136.259 248.867C136.257 249.697 136.02 250.51 135.576 251.211C135.131 251.913 134.497 252.474 133.747 252.829C123.769 257.352 113.134 260.255 102.242 261.43C102.242 261.092 102.242 260.851 102.242 260.512C110.876 259.748 119.364 257.797 127.465 254.714C129.011 253.989 129.881 255.149 129.881 253.458V219.972C129.36 202.185 134.173 184.65 143.701 169.622C159.791 143.77 174.481 128.115 174.481 91.2944C174.481 54.4742 143.749 5.33241 87.2142 3.49623C88.4222 3.49623 89.6786 3.49623 90.8866 3.49623C149.258 3.39959 181.004 54.4742 181.004 91.246C181.004 128.018 166.363 143.722 150.272 169.622Z" fill="#FCA100"/>
<path d="M33.5788 169.631C43.1239 184.654 47.9538 202.19 47.4468 219.981V248.973C47.4531 249.809 47.6973 250.625 48.1509 251.327C48.6044 252.029 49.2485 252.587 50.0077 252.935C60.02 257.439 70.689 260.31 81.6093 261.44C81.6093 261.102 81.6093 260.86 81.6093 260.522C72.9323 259.052 64.485 256.453 56.4827 252.79C54.8881 252.066 53.97 255.158 53.97 253.467L58.2222 235.009C62.771 214.507 59.9122 193.057 50.1527 174.463C49.2829 172.869 48.3165 171.274 47.3018 169.631C31.2594 143.731 16.57 128.076 16.57 91.2554C16.57 54.4353 40.1021 5.34176 96.8785 3.50559C95.7188 3.50559 94.4625 3.50559 93.2062 3.50559C79.7402 3.30782 66.4084 6.202 54.2365 11.9654C42.0646 17.7288 31.3772 26.2078 22.9966 36.75C10.4586 52.2024 3.37526 71.3632 2.84705 91.2554C2.84705 128.076 17.4881 143.731 33.5788 169.631Z" fill="white"/>
<path d="M23.528 156.329C23.0854 156.333 22.6492 156.224 22.2604 156.012C21.8716 155.801 21.5429 155.494 21.3052 155.121C9.3701 136.711 0.237549 120.282 0.237549 90.9515C0.569914 75.9895 4.65739 61.351 12.1244 48.3812C12.2954 48.0763 12.5248 47.8081 12.7996 47.592C13.0744 47.3759 13.3892 47.2161 13.7258 47.1219C14.0625 47.0276 14.4144 47.0007 14.7615 47.0427C15.1085 47.0846 15.4439 47.1947 15.7484 47.3665C16.0476 47.5368 16.3101 47.7648 16.5208 48.0371C16.7315 48.3094 16.8863 48.6207 16.9761 48.9531C17.0659 49.2855 17.0891 49.6324 17.0443 49.9738C16.9994 50.3151 16.8874 50.6443 16.7148 50.9422C9.68578 63.1291 5.83103 76.8866 5.50447 90.9515C5.50447 118.881 13.8639 134.005 25.7024 152.27C25.8976 152.556 26.0327 152.879 26.0996 153.219C26.1664 153.559 26.1636 153.909 26.0914 154.247C26.0191 154.586 25.8788 154.907 25.6791 155.19C25.4793 155.473 25.2243 155.712 24.9293 155.894C24.5158 156.175 24.0279 156.327 23.528 156.329Z" fill="#3E3126"/>
<path d="M139.013 211.855C138.325 211.782 137.692 211.443 137.25 210.911C136.808 210.378 136.591 209.694 136.645 209.004C137.038 205.104 137.667 201.231 138.53 197.408C140.879 186.953 144.98 176.971 150.658 167.884C153.123 163.921 155.49 160.153 157.955 156.528C170.808 136.862 180.955 121.303 180.955 90.9577C180.955 55.2489 150.513 5.76887 93.3502 5.76887C71.9861 5.44603 51.2902 13.2135 35.4141 27.513C35.1687 27.8013 34.8645 28.0339 34.522 28.1951C34.1795 28.3563 33.8065 28.4425 33.4279 28.4478C33.0494 28.4532 32.6741 28.3776 32.3271 28.2262C31.9801 28.0747 31.6695 27.8509 31.4161 27.5697C31.1627 27.2884 30.9722 26.9563 30.8575 26.5955C30.7429 26.2348 30.7066 25.8536 30.7511 25.4777C30.7957 25.1017 30.92 24.7397 31.1159 24.4157C31.3117 24.0917 31.5745 23.8133 31.8867 23.5991C48.6719 8.48914 70.5257 0.244357 93.1086 0.501953C153.702 0.501953 185.98 53.0262 185.98 90.9577C185.98 122.897 174.915 139.81 162.11 159.379C159.791 163.003 157.278 166.724 154.862 170.686C149.514 179.292 145.643 188.732 143.41 198.616C142.595 202.214 142.014 205.862 141.671 209.536C141.588 210.181 141.272 210.773 140.782 211.2C140.292 211.627 139.663 211.861 139.013 211.855Z" fill="#3E3126"/>
<path d="M93.642 264.377C78.2006 264.313 62.9431 261.021 48.849 254.713C47.6335 254.162 46.6034 253.271 45.8831 252.148C45.1629 251.025 44.7832 249.717 44.7901 248.383V226.638C44.8766 226.001 45.1911 225.417 45.6753 224.994C46.1596 224.571 46.7807 224.338 47.4236 224.338C48.0665 224.338 48.6876 224.571 49.1718 224.994C49.6561 225.417 49.9706 226.001 50.0571 226.638V248.383C50.0593 248.704 50.1508 249.019 50.3214 249.292C50.492 249.565 50.7351 249.786 51.0235 249.929C64.2613 255.83 78.5927 258.88 93.0864 258.88C107.58 258.88 121.911 255.83 135.149 249.929C135.45 249.797 135.707 249.581 135.887 249.307C136.067 249.032 136.163 248.711 136.164 248.383V216.443C136.164 215.746 136.437 215.077 136.925 214.58C137.413 214.083 138.077 213.798 138.773 213.785C139.478 213.785 140.154 214.065 140.652 214.564C141.151 215.062 141.431 215.738 141.431 216.443V248.528C141.419 249.87 141.027 251.182 140.3 252.311C139.573 253.44 138.541 254.34 137.324 254.906C123.611 261.158 108.713 264.388 93.642 264.377Z" fill="#3E3126"/>
<path d="M45.9484 203.441C45.3407 203.44 44.7524 203.227 44.2848 202.839C43.8173 202.451 43.4999 201.912 43.3874 201.315C41.947 193.901 39.5936 186.695 36.3809 179.861C36.2341 179.55 36.1502 179.213 36.1339 178.87C36.1176 178.526 36.1694 178.183 36.2861 177.86C36.4028 177.537 36.5823 177.24 36.8142 176.986C37.046 176.732 37.3258 176.527 37.6372 176.382C38.272 176.083 38.999 176.048 39.6598 176.283C40.3205 176.518 40.8615 177.005 41.1646 177.638C44.5712 184.885 47.055 192.531 48.5577 200.397C48.6859 201.082 48.54 201.79 48.1514 202.368C47.7628 202.946 47.1625 203.349 46.4799 203.489L45.9484 203.441Z" fill="#3E3126"/>
<path d="M152.58 126.64C154.696 120.907 153.104 115.039 149.023 113.532C144.942 112.026 139.918 115.453 137.802 121.186C135.686 126.919 137.278 132.787 141.359 134.294C145.44 135.8 150.464 132.374 152.58 126.64Z" fill="#FFB320"/>
<path d="M154.089 107.535C156.758 107.535 158.921 105.372 158.921 102.703C158.921 100.034 156.758 97.8711 154.089 97.8711C151.42 97.8711 149.257 100.034 149.257 102.703C149.257 105.372 151.42 107.535 154.089 107.535Z" fill="#FFB320"/>
<path opacity="0.75" d="M141.235 108.213C142.303 108.213 143.168 107.348 143.168 106.28C143.168 105.213 142.303 104.348 141.235 104.348C140.168 104.348 139.303 105.213 139.303 106.28C139.303 107.348 140.168 108.213 141.235 108.213Z" fill="#FFB320"/>
<path d="M133.311 134.488C135.073 134.488 136.5 133.06 136.5 131.299C136.5 129.537 135.073 128.109 133.311 128.109C131.55 128.109 130.122 129.537 130.122 131.299C130.122 133.06 131.55 134.488 133.311 134.488Z" fill="#FFB320"/>
<path opacity="0.35" d="M149.742 91.4913C151.717 91.4913 153.317 89.8904 153.317 87.9156C153.317 85.9407 151.717 84.3398 149.742 84.3398C147.767 84.3398 146.166 85.9407 146.166 87.9156C146.166 89.8904 147.767 91.4913 149.742 91.4913Z" fill="#FFB320"/>
<path opacity="0.35" d="M138.145 97.9595C139.826 97.9595 141.189 96.5965 141.189 94.9153C141.189 93.234 139.826 91.8711 138.145 91.8711C136.463 91.8711 135.1 93.234 135.1 94.9153C135.1 96.5965 136.463 97.9595 138.145 97.9595Z" fill="#FFB320"/>
<path opacity="0.35" d="M130.654 116.134C132.069 116.134 133.215 114.987 133.215 113.573C133.215 112.158 132.069 111.012 130.654 111.012C129.24 111.012 128.093 112.158 128.093 113.573C128.093 114.987 129.24 116.134 130.654 116.134Z" fill="#FFB320"/>
<path opacity="0.75" d="M122.584 63.9516C123.652 63.9516 124.517 63.0862 124.517 62.0188C124.517 60.9513 123.652 60.0859 122.584 60.0859C121.517 60.0859 120.652 60.9513 120.652 62.0188C120.652 63.0862 121.517 63.9516 122.584 63.9516Z" fill="#E2AB63"/>
<path opacity="0.35" d="M114.079 47.2295C116.054 47.2295 117.655 45.6286 117.655 43.6538C117.655 41.679 116.054 40.0781 114.079 40.0781C112.105 40.0781 110.504 41.679 110.504 43.6538C110.504 45.6286 112.105 47.2295 114.079 47.2295Z" fill="#E2AB63"/>
<path opacity="0.35" d="M111.906 60.1313C113.587 60.1313 114.95 58.7684 114.95 57.0872C114.95 55.4059 113.587 54.043 111.906 54.043C110.225 54.043 108.862 55.4059 108.862 57.0872C108.862 58.7684 110.225 60.1313 111.906 60.1313Z" fill="#E2AB63"/>
<path opacity="0.35" d="M121.327 77.3798C122.742 77.3798 123.888 76.2332 123.888 74.8188C123.888 73.4044 122.742 72.2578 121.327 72.2578C119.913 72.2578 118.766 73.4044 118.766 74.8188C118.766 76.2332 119.913 77.3798 121.327 77.3798Z" fill="#E2AB63"/>
<path d="M99.2465 261.14C98.9759 261.14 98.708 261.086 98.4585 260.981C98.2091 260.876 97.9832 260.722 97.7941 260.529C97.605 260.335 97.4565 260.106 97.3574 259.854C97.2583 259.602 97.2106 259.333 97.217 259.062V185.229H86.8765V258.241C86.801 258.732 86.5524 259.179 86.1758 259.502C85.7991 259.825 85.3192 260.003 84.8229 260.003C84.3265 260.003 83.8466 259.825 83.4699 259.502C83.0933 259.179 82.8447 258.732 82.7692 258.241V185.229H72.7186C69.0021 185.229 65.4379 183.753 62.81 181.125C60.182 178.497 58.7057 174.932 58.7057 171.216V168.607C58.7057 164.89 60.182 161.326 62.81 158.698C65.4379 156.07 69.0021 154.594 72.7186 154.594C76.4351 154.594 79.9993 156.07 82.6272 158.698C85.2552 161.326 86.7315 164.89 86.7315 168.607V181.122H97.0721V168.607C97.2822 165.026 98.8527 161.661 101.462 159.201C104.071 156.74 107.523 155.369 111.109 155.369C114.696 155.369 118.147 156.74 120.756 159.201C123.366 161.661 124.936 165.026 125.146 168.607V171.216C125.134 174.887 123.687 178.408 121.114 181.027C118.541 183.645 115.045 185.153 111.375 185.229H101.711V259.062C101.716 259.371 101.653 259.677 101.525 259.958C101.397 260.239 101.209 260.488 100.973 260.687C100.737 260.886 100.459 261.03 100.161 261.109C99.8621 261.187 99.5498 261.198 99.2465 261.14ZM101.324 181.122H110.988C112.3 181.134 113.6 180.888 114.816 180.396C116.032 179.905 117.138 179.178 118.072 178.258C119.006 177.337 119.749 176.241 120.258 175.033C120.767 173.824 121.033 172.527 121.039 171.216V168.607C120.864 166.093 119.741 163.739 117.898 162.02C116.055 160.302 113.629 159.346 111.109 159.346C108.589 159.346 106.163 160.302 104.32 162.02C102.477 163.739 101.355 166.093 101.179 168.607L101.324 181.122ZM72.7186 158.701C70.1748 158.762 67.7522 159.8 65.9529 161.599C64.1537 163.399 63.1158 165.821 63.0545 168.365V170.974C63.0538 173.56 64.0642 176.044 65.8699 177.895C67.6756 179.746 70.1335 180.817 72.7186 180.88H82.3827V168.607C82.3834 166.021 81.373 163.537 79.5673 161.686C77.7616 159.835 75.3036 158.764 72.7186 158.701Z" fill="#3E3126"/>
<path d="M145.05 72.1084C152.254 70.2279 156.111 61.1049 153.664 51.7318C151.218 42.3586 143.394 36.2847 136.19 38.1652C128.986 40.0458 125.129 49.1688 127.576 58.5419C130.023 67.9151 137.846 73.989 145.05 72.1084Z" fill="#FFB320"/>
<path d="M76.004 277.275H75.5208C70.2118 276.089 65.0082 274.473 59.9617 272.443C58.015 271.788 56.375 270.444 55.3513 268.664C54.3276 266.884 53.9909 264.79 54.4048 262.779C54.4778 262.167 54.786 261.608 55.2641 261.22C55.7422 260.833 56.3526 260.646 56.9658 260.701C57.2689 260.725 57.5641 260.809 57.8339 260.95C58.1037 261.09 58.3426 261.283 58.5364 261.517C58.7301 261.752 58.8749 262.023 58.962 262.314C59.0491 262.605 59.0769 262.911 59.0436 263.213C58.657 267.079 61.3146 268.045 61.4596 268.045C66.3554 269.899 71.3774 271.401 76.4872 272.539C77.0936 272.678 77.6211 273.05 77.9557 273.574C78.2903 274.098 78.405 274.733 78.2751 275.342C78.1842 275.88 77.9067 276.368 77.4914 276.722C77.076 277.075 76.5494 277.271 76.004 277.275Z" fill="white"/>
<path d="M78.4205 279.978H78.0339C71.412 278.749 64.9348 276.838 58.7057 274.277C56.784 273.492 55.1383 272.155 53.977 270.435C52.8157 268.714 52.1912 266.688 52.1825 264.612V254.948C52.1369 254.652 52.1559 254.35 52.2382 254.062C52.3205 253.774 52.4641 253.507 52.6591 253.28C52.8542 253.052 53.0961 252.87 53.3683 252.745C53.6405 252.619 53.9365 252.555 54.2361 252.555C54.5357 252.555 54.8317 252.619 55.1039 252.745C55.3761 252.87 55.618 253.052 55.8131 253.28C56.0081 253.507 56.1517 253.774 56.234 254.062C56.3163 254.35 56.3353 254.652 56.2897 254.948V264.612C56.2817 265.898 56.6536 267.156 57.3585 268.231C58.0634 269.306 59.07 270.148 60.252 270.653C66.2552 272.995 72.4684 274.759 78.807 275.919C79.0709 275.966 79.3229 276.064 79.5485 276.209C79.7741 276.353 79.9689 276.541 80.1217 276.761C80.2744 276.981 80.3821 277.229 80.4384 277.491C80.4947 277.753 80.4986 278.024 80.4499 278.287C80.3603 278.761 80.1088 279.188 79.7386 279.497C79.3683 279.805 78.9024 279.976 78.4205 279.978Z" fill="#3E3126"/>
<path d="M92.0457 281.482C91.5551 281.407 91.1078 281.158 90.7846 280.781C90.4615 280.405 90.2838 279.925 90.2838 279.428C90.2838 278.932 90.4615 278.452 90.7846 278.076C91.1078 277.699 91.5551 277.45 92.0457 277.375C103.654 277.215 115.129 274.871 125.87 270.465C127.061 269.968 128.078 269.129 128.792 268.054C129.506 266.978 129.884 265.716 129.881 264.425V254.761C129.835 254.465 129.854 254.162 129.936 253.874C130.019 253.586 130.162 253.319 130.357 253.092C130.552 252.865 130.794 252.682 131.066 252.557C131.339 252.432 131.635 252.367 131.934 252.367C132.234 252.367 132.53 252.432 132.802 252.557C133.074 252.682 133.316 252.865 133.511 253.092C133.706 253.319 133.85 253.586 133.932 253.874C134.014 254.162 134.033 254.465 133.988 254.761V264.425C133.975 266.506 133.343 268.536 132.173 270.257C131.003 271.978 129.347 273.312 127.416 274.089C116.202 278.774 104.198 281.283 92.0457 281.482Z" fill="#3E3126"/>
<path d="M93.7869 295.976C84.4354 295.841 75.1918 293.956 66.5342 290.419C64.9535 289.758 63.6045 288.644 62.6582 287.216C61.7119 285.787 61.211 284.111 61.219 282.398V274.956C61.1734 274.66 61.1924 274.358 61.2747 274.07C61.357 273.782 61.5006 273.515 61.6956 273.287C61.8907 273.06 62.1326 272.878 62.4048 272.752C62.677 272.627 62.973 272.562 63.2726 272.562C63.5722 272.562 63.8682 272.627 64.1404 272.752C64.4126 272.878 64.6545 273.06 64.8496 273.287C65.0446 273.515 65.1882 273.782 65.2705 274.07C65.3528 274.358 65.3718 274.66 65.3262 274.956V282.398C65.3142 283.293 65.57 284.172 66.0607 284.921C66.5515 285.67 67.2548 286.255 68.0805 286.601C76.2418 289.958 84.9631 291.745 93.7869 291.868C94.083 291.823 94.3854 291.842 94.6735 291.924C94.9615 292.006 95.2284 292.15 95.4558 292.345C95.6831 292.54 95.8656 292.782 95.9907 293.054C96.1159 293.326 96.1806 293.622 96.1806 293.922C96.1806 294.222 96.1159 294.518 95.9907 294.79C95.8656 295.062 95.6831 295.304 95.4558 295.499C95.2284 295.694 94.9615 295.838 94.6735 295.92C94.3854 296.002 94.083 296.021 93.7869 295.976Z" fill="#3E3126"/>
<path d="M92.4322 295.976C92.1361 296.021 91.8336 296.002 91.5456 295.92C91.2575 295.838 90.9907 295.694 90.7633 295.499C90.536 295.304 90.3535 295.062 90.2284 294.79C90.1032 294.518 90.0385 294.222 90.0385 293.922C90.0385 293.622 90.1032 293.326 90.2284 293.054C90.3535 292.782 90.536 292.54 90.7633 292.345C90.9907 292.15 91.2575 292.006 91.5456 291.924C91.8336 291.842 92.1361 291.823 92.4322 291.868C101.241 291.747 109.946 289.96 118.09 286.601C118.92 286.26 119.627 285.676 120.119 284.926C120.61 284.176 120.863 283.294 120.845 282.398V274.956C120.799 274.66 120.818 274.358 120.9 274.07C120.983 273.782 121.126 273.515 121.321 273.287C121.516 273.06 121.758 272.878 122.03 272.752C122.303 272.627 122.599 272.562 122.898 272.562C123.198 272.562 123.494 272.627 123.766 272.752C124.038 272.878 124.28 273.06 124.475 273.287C124.67 273.515 124.814 273.782 124.896 274.07C124.978 274.358 124.997 274.66 124.952 274.956V282.398C124.957 284.104 124.461 285.774 123.525 287.2C122.588 288.626 121.253 289.746 119.685 290.419C111.027 293.956 101.784 295.841 92.4322 295.976Z" fill="#3E3126"/>
<path d="M93.1083 316.81C86.3033 316.81 79.7771 314.106 74.9653 309.295C70.1534 304.483 67.4502 297.956 67.4502 291.152C67.4046 290.855 67.4236 290.553 67.5059 290.265C67.5882 289.977 67.7318 289.71 67.9268 289.483C68.1219 289.255 68.3638 289.073 68.636 288.948C68.9082 288.823 69.2042 288.758 69.5038 288.758C69.8034 288.758 70.0994 288.823 70.3716 288.948C70.6438 289.073 70.8857 289.255 71.0808 289.483C71.2758 289.71 71.4194 289.977 71.5017 290.265C71.584 290.553 71.603 290.855 71.5574 291.152C71.5574 296.867 73.8279 302.349 77.8695 306.39C81.9111 310.432 87.3927 312.702 93.1083 312.702C98.824 312.702 104.306 310.432 108.347 306.39C112.389 302.349 114.659 296.867 114.659 291.152C114.614 290.855 114.633 290.553 114.715 290.265C114.797 289.977 114.941 289.71 115.136 289.483C115.331 289.255 115.573 289.073 115.845 288.948C116.117 288.823 116.413 288.758 116.713 288.758C117.012 288.758 117.308 288.823 117.581 288.948C117.853 289.073 118.095 289.255 118.29 289.483C118.485 289.71 118.628 289.977 118.711 290.265C118.793 290.553 118.812 290.855 118.766 291.152C118.766 294.521 118.103 297.857 116.813 300.97C115.524 304.083 113.634 306.912 111.251 309.295C108.869 311.677 106.04 313.567 102.927 314.857C99.8143 316.146 96.4778 316.81 93.1083 316.81Z" fill="#3E3126"/>
<path d="M34.7857 173.869C36.3869 173.869 37.6849 172.571 37.6849 170.97C37.6849 169.368 36.3869 168.07 34.7857 168.07C33.1845 168.07 31.8865 169.368 31.8865 170.97C31.8865 172.571 33.1845 173.869 34.7857 173.869Z" fill="#3E3126"/>
<path d="M47.4462 214.033C49.0474 214.033 50.3454 212.735 50.3454 211.134C50.3454 209.532 49.0474 208.234 47.4462 208.234C45.845 208.234 44.547 209.532 44.547 211.134C44.547 212.735 45.845 214.033 47.4462 214.033Z" fill="#3E3126"/>
<path d="M19.5652 45.7242C21.1664 45.7242 22.4645 44.4262 22.4645 42.825C22.4645 41.2238 21.1664 39.9258 19.5652 39.9258C17.964 39.9258 16.666 41.2238 16.666 42.825C16.666 44.4262 17.964 45.7242 19.5652 45.7242Z" fill="#3E3126"/>
<path d="M25.317 115.211H24.7855C24.6075 115.142 24.4449 115.038 24.3072 114.906C24.1695 114.773 24.0593 114.615 23.9829 114.44C23.9066 114.265 23.8656 114.076 23.8624 113.885C23.8591 113.694 23.8937 113.505 23.964 113.327L31.8886 94.482C31.9647 94.3043 32.0751 94.1434 32.2135 94.0084C32.3518 93.8734 32.5154 93.7669 32.6949 93.6951C32.8744 93.6233 33.0662 93.5876 33.2595 93.59C33.4528 93.5923 33.6437 93.6327 33.8214 93.7089C33.9991 93.785 34.16 93.8954 34.295 94.0337C34.43 94.1721 34.5365 94.3357 34.6083 94.5151C34.6801 94.6946 34.7158 94.8865 34.7134 95.0798C34.7111 95.2731 34.6707 95.464 34.5945 95.6417L26.67 114.293C26.563 114.565 26.3767 114.798 26.1353 114.961C25.8939 115.125 25.6087 115.212 25.317 115.211Z" fill="#3E3126"/>
<path d="M35.8989 106.123H35.3674C35.1894 106.054 35.0269 105.95 34.8891 105.818C34.7514 105.685 34.6412 105.527 34.5649 105.352C34.4885 105.177 34.4475 104.988 34.4443 104.797C34.4411 104.606 34.4756 104.417 34.546 104.239L38.8948 93.9951C38.9634 93.8171 39.0675 93.6551 39.2009 93.5188C39.3343 93.3825 39.4941 93.2749 39.6705 93.2025C39.8469 93.1301 40.0362 93.0945 40.2269 93.0979C40.4175 93.1012 40.6055 93.1434 40.7793 93.2219C40.9572 93.2905 41.1193 93.3947 41.2556 93.528C41.3918 93.6614 41.4994 93.8212 41.5718 93.9976C41.6442 94.174 41.6798 94.3634 41.6765 94.554C41.6731 94.7447 41.6309 94.9327 41.5524 95.1064L37.3002 105.205C37.1904 105.485 36.9966 105.723 36.7456 105.887C36.4946 106.052 36.1988 106.134 35.8989 106.123Z" fill="#3E3126"/>
<path d="M47.1622 75.6387C51.9425 68.7889 52.0567 60.6113 47.4172 57.3735C42.7777 54.1357 35.1414 57.0639 30.3611 63.9137C25.5809 70.7635 25.4667 78.9411 30.1062 82.1789C34.7457 85.4166 42.382 82.4885 47.1622 75.6387Z" fill="#FFEFAE"/>
<path d="M67.31 56.4817C69.6925 53.0678 69.7434 48.9878 67.4237 47.369C65.1039 45.7501 61.292 47.2053 58.9095 50.6192C56.527 54.0332 56.4761 58.1131 58.7959 59.732C61.1156 61.3509 64.9275 59.8957 67.31 56.4817Z" fill="#FFEFAE"/>
</g>
</g>
<defs>
<clipPath id="clip0_1_2">
<rect width="186" height="317" fill="white"/>
</clipPath>
</defs>
</svg>
